ISO-10303-21;
HEADER;
/* Generated by software containing ST-Developer
 * from STEP Tools, Inc. (www.steptools.com) 
 */

FILE_DESCRIPTION(
/* description */ (''),
/* implementation_level */ '2;1');

FILE_NAME(
/* name */ 
'C:\\Users\\LEGION\\Downloads\\grippers_3D_models\\grippers_3D_models\\
JAW KUKA.stp',
/* time_stamp */ '2026-06-06T17:40:22+02:00',
/* author */ ('LEGION'),
/* organization */ (''),
/* preprocessor_version */ 'ST-DEVELOPER v18.1',
/* originating_system */ 'Autodesk Inventor 2021',
/* authorisation */ '');

FILE_SCHEMA (('AUTOMOTIVE_DESIGN { 1 0 10303 214 3 1 1 }'));
ENDSEC;

DATA;
#10=MECHANICAL_DESIGN_GEOMETRIC_PRESENTATION_REPRESENTATION('',(#13),#422);
#11=SHAPE_REPRESENTATION_RELATIONSHIP('SRR','None',#429,#12);
#12=ADVANCED_BREP_SHAPE_REPRESENTATION('',(#14),#421);
#13=STYLED_ITEM('',(#438),#14);
#14=MANIFOLD_SOLID_BREP('Solid1',#252);
#15=PLANE('',#275);
#16=PLANE('',#276);
#17=PLANE('',#277);
#18=PLANE('',#278);
#19=PLANE('',#279);
#20=PLANE('',#280);
#21=PLANE('',#281);
#22=PLANE('',#282);
#23=PLANE('',#283);
#24=PLANE('',#284);
#25=PLANE('',#285);
#26=PLANE('',#286);
#27=FACE_OUTER_BOUND('',#40,.T.);
#28=FACE_OUTER_BOUND('',#41,.T.);
#29=FACE_OUTER_BOUND('',#42,.T.);
#30=FACE_OUTER_BOUND('',#43,.T.);
#31=FACE_OUTER_BOUND('',#44,.T.);
#32=FACE_OUTER_BOUND('',#45,.T.);
#33=FACE_OUTER_BOUND('',#46,.T.);
#34=FACE_OUTER_BOUND('',#47,.T.);
#35=FACE_OUTER_BOUND('',#48,.T.);
#36=FACE_OUTER_BOUND('',#49,.T.);
#37=FACE_OUTER_BOUND('',#50,.T.);
#38=FACE_OUTER_BOUND('',#51,.T.);
#39=FACE_OUTER_BOUND('',#52,.T.);
#40=EDGE_LOOP('',(#172,#173,#174,#175));
#41=EDGE_LOOP('',(#176,#177,#178,#179,#180,#181));
#42=EDGE_LOOP('',(#182,#183,#184,#185));
#43=EDGE_LOOP('',(#186,#187,#188,#189));
#44=EDGE_LOOP('',(#190,#191,#192,#193));
#45=EDGE_LOOP('',(#194,#195,#196,#197));
#46=EDGE_LOOP('',(#198,#199,#200,#201));
#47=EDGE_LOOP('',(#202,#203,#204,#205));
#48=EDGE_LOOP('',(#206,#207,#208,#209,#210,#211));
#49=EDGE_LOOP('',(#212,#213,#214,#215));
#50=EDGE_LOOP('',(#216,#217,#218,#219));
#51=EDGE_LOOP('',(#220,#221,#222,#223,#224,#225,#226,#227,#228));
#52=EDGE_LOOP('',(#229,#230,#231,#232,#233,#234,#235,#236,#237));
#53=LINE('',#356,#84);
#54=LINE('',#359,#85);
#55=LINE('',#362,#86);
#56=LINE('',#364,#87);
#57=LINE('',#366,#88);
#58=LINE('',#368,#89);
#59=LINE('',#369,#90);
#60=LINE('',#372,#91);
#61=LINE('',#373,#92);
#62=LINE('',#377,#93);
#63=LINE('',#379,#94);
#64=LINE('',#381,#95);
#65=LINE('',#382,#96);
#66=LINE('',#385,#97);
#67=LINE('',#387,#98);
#68=LINE('',#388,#99);
#69=LINE('',#391,#100);
#70=LINE('',#393,#101);
#71=LINE('',#394,#102);
#72=LINE('',#397,#103);
#73=LINE('',#399,#104);
#74=LINE('',#400,#105);
#75=LINE('',#403,#106);
#76=LINE('',#405,#107);
#77=LINE('',#406,#108);
#78=LINE('',#409,#109);
#79=LINE('',#410,#110);
#80=LINE('',#411,#111);
#81=LINE('',#413,#112);
#82=LINE('',#415,#113);
#83=LINE('',#416,#114);
#84=VECTOR('',#293,10.);
#85=VECTOR('',#296,10.);
#86=VECTOR('',#299,10.);
#87=VECTOR('',#300,10.);
#88=VECTOR('',#301,10.);
#89=VECTOR('',#302,10.);
#90=VECTOR('',#303,10.);
#91=VECTOR('',#306,10.);
#92=VECTOR('',#307,10.);
#93=VECTOR('',#310,10.);
#94=VECTOR('',#311,10.);
#95=VECTOR('',#312,10.);
#96=VECTOR('',#313,10.);
#97=VECTOR('',#316,10.);
#98=VECTOR('',#317,10.);
#99=VECTOR('',#318,10.);
#100=VECTOR('',#321,10.);
#101=VECTOR('',#322,10.);
#102=VECTOR('',#323,10.);
#103=VECTOR('',#326,10.);
#104=VECTOR('',#327,10.);
#105=VECTOR('',#328,10.);
#106=VECTOR('',#331,10.);
#107=VECTOR('',#332,10.);
#108=VECTOR('',#333,10.);
#109=VECTOR('',#336,10.);
#110=VECTOR('',#337,10.);
#111=VECTOR('',#338,10.);
#112=VECTOR('',#341,10.);
#113=VECTOR('',#344,10.);
#114=VECTOR('',#345,10.);
#115=CIRCLE('',#273,7.5);
#116=CIRCLE('',#274,7.5);
#117=VERTEX_POINT('',#352);
#118=VERTEX_POINT('',#353);
#119=VERTEX_POINT('',#355);
#120=VERTEX_POINT('',#357);
#121=VERTEX_POINT('',#361);
#122=VERTEX_POINT('',#363);
#123=VERTEX_POINT('',#365);
#124=VERTEX_POINT('',#367);
#125=VERTEX_POINT('',#371);
#126=VERTEX_POINT('',#375);
#127=VERTEX_POINT('',#376);
#128=VERTEX_POINT('',#378);
#129=VERTEX_POINT('',#380);
#130=VERTEX_POINT('',#384);
#131=VERTEX_POINT('',#386);
#132=VERTEX_POINT('',#390);
#133=VERTEX_POINT('',#392);
#134=VERTEX_POINT('',#396);
#135=VERTEX_POINT('',#398);
#136=VERTEX_POINT('',#402);
#137=VERTEX_POINT('',#404);
#138=VERTEX_POINT('',#408);
#139=EDGE_CURVE('',#117,#118,#115,.T.);
#140=EDGE_CURVE('',#119,#117,#53,.T.);
#141=EDGE_CURVE('',#120,#119,#116,.T.);
#142=EDGE_CURVE('',#118,#120,#54,.T.);
#143=EDGE_CURVE('',#119,#121,#55,.T.);
#144=EDGE_CURVE('',#122,#121,#56,.T.);
#145=EDGE_CURVE('',#123,#122,#57,.T.);
#146=EDGE_CURVE('',#123,#124,#58,.T.);
#147=EDGE_CURVE('',#124,#120,#59,.T.);
#148=EDGE_CURVE('',#117,#125,#60,.T.);
#149=EDGE_CURVE('',#121,#125,#61,.T.);
#150=EDGE_CURVE('',#126,#127,#62,.T.);
#151=EDGE_CURVE('',#127,#128,#63,.T.);
#152=EDGE_CURVE('',#129,#128,#64,.T.);
#153=EDGE_CURVE('',#126,#129,#65,.T.);
#154=EDGE_CURVE('',#130,#126,#66,.T.);
#155=EDGE_CURVE('',#131,#129,#67,.T.);
#156=EDGE_CURVE('',#130,#131,#68,.T.);
#157=EDGE_CURVE('',#132,#130,#69,.T.);
#158=EDGE_CURVE('',#133,#131,#70,.T.);
#159=EDGE_CURVE('',#132,#133,#71,.T.);
#160=EDGE_CURVE('',#134,#132,#72,.T.);
#161=EDGE_CURVE('',#135,#133,#73,.T.);
#162=EDGE_CURVE('',#134,#135,#74,.T.);
#163=EDGE_CURVE('',#136,#134,#75,.T.);
#164=EDGE_CURVE('',#137,#135,#76,.T.);
#165=EDGE_CURVE('',#136,#137,#77,.T.);
#166=EDGE_CURVE('',#138,#118,#78,.T.);
#167=EDGE_CURVE('',#138,#136,#79,.T.);
#168=EDGE_CURVE('',#125,#137,#80,.T.);
#169=EDGE_CURVE('',#124,#138,#81,.T.);
#170=EDGE_CURVE('',#127,#123,#82,.T.);
#171=EDGE_CURVE('',#128,#122,#83,.T.);
#172=ORIENTED_EDGE('',*,*,#139,.F.);
#173=ORIENTED_EDGE('',*,*,#140,.F.);
#174=ORIENTED_EDGE('',*,*,#141,.F.);
#175=ORIENTED_EDGE('',*,*,#142,.F.);
#176=ORIENTED_EDGE('',*,*,#141,.T.);
#177=ORIENTED_EDGE('',*,*,#143,.T.);
#178=ORIENTED_EDGE('',*,*,#144,.F.);
#179=ORIENTED_EDGE('',*,*,#145,.F.);
#180=ORIENTED_EDGE('',*,*,#146,.T.);
#181=ORIENTED_EDGE('',*,*,#147,.T.);
#182=ORIENTED_EDGE('',*,*,#140,.T.);
#183=ORIENTED_EDGE('',*,*,#148,.T.);
#184=ORIENTED_EDGE('',*,*,#149,.F.);
#185=ORIENTED_EDGE('',*,*,#143,.F.);
#186=ORIENTED_EDGE('',*,*,#150,.T.);
#187=ORIENTED_EDGE('',*,*,#151,.T.);
#188=ORIENTED_EDGE('',*,*,#152,.F.);
#189=ORIENTED_EDGE('',*,*,#153,.F.);
#190=ORIENTED_EDGE('',*,*,#154,.T.);
#191=ORIENTED_EDGE('',*,*,#153,.T.);
#192=ORIENTED_EDGE('',*,*,#155,.F.);
#193=ORIENTED_EDGE('',*,*,#156,.F.);
#194=ORIENTED_EDGE('',*,*,#157,.T.);
#195=ORIENTED_EDGE('',*,*,#156,.T.);
#196=ORIENTED_EDGE('',*,*,#158,.F.);
#197=ORIENTED_EDGE('',*,*,#159,.F.);
#198=ORIENTED_EDGE('',*,*,#160,.T.);
#199=ORIENTED_EDGE('',*,*,#159,.T.);
#200=ORIENTED_EDGE('',*,*,#161,.F.);
#201=ORIENTED_EDGE('',*,*,#162,.F.);
#202=ORIENTED_EDGE('',*,*,#163,.T.);
#203=ORIENTED_EDGE('',*,*,#162,.T.);
#204=ORIENTED_EDGE('',*,*,#164,.F.);
#205=ORIENTED_EDGE('',*,*,#165,.F.);
#206=ORIENTED_EDGE('',*,*,#139,.T.);
#207=ORIENTED_EDGE('',*,*,#166,.F.);
#208=ORIENTED_EDGE('',*,*,#167,.T.);
#209=ORIENTED_EDGE('',*,*,#165,.T.);
#210=ORIENTED_EDGE('',*,*,#168,.F.);
#211=ORIENTED_EDGE('',*,*,#148,.F.);
#212=ORIENTED_EDGE('',*,*,#142,.T.);
#213=ORIENTED_EDGE('',*,*,#147,.F.);
#214=ORIENTED_EDGE('',*,*,#169,.T.);
#215=ORIENTED_EDGE('',*,*,#166,.T.);
#216=ORIENTED_EDGE('',*,*,#170,.T.);
#217=ORIENTED_EDGE('',*,*,#145,.T.);
#218=ORIENTED_EDGE('',*,*,#171,.F.);
#219=ORIENTED_EDGE('',*,*,#151,.F.);
#220=ORIENTED_EDGE('',*,*,#171,.T.);
#221=ORIENTED_EDGE('',*,*,#144,.T.);
#222=ORIENTED_EDGE('',*,*,#149,.T.);
#223=ORIENTED_EDGE('',*,*,#168,.T.);
#224=ORIENTED_EDGE('',*,*,#164,.T.);
#225=ORIENTED_EDGE('',*,*,#161,.T.);
#226=ORIENTED_EDGE('',*,*,#158,.T.);
#227=ORIENTED_EDGE('',*,*,#155,.T.);
#228=ORIENTED_EDGE('',*,*,#152,.T.);
#229=ORIENTED_EDGE('',*,*,#170,.F.);
#230=ORIENTED_EDGE('',*,*,#150,.F.);
#231=ORIENTED_EDGE('',*,*,#154,.F.);
#232=ORIENTED_EDGE('',*,*,#157,.F.);
#233=ORIENTED_EDGE('',*,*,#160,.F.);
#234=ORIENTED_EDGE('',*,*,#163,.F.);
#235=ORIENTED_EDGE('',*,*,#167,.F.);
#236=ORIENTED_EDGE('',*,*,#169,.F.);
#237=ORIENTED_EDGE('',*,*,#146,.F.);
#238=CYLINDRICAL_SURFACE('',#272,7.5);
#239=ADVANCED_FACE('',(#27),#238,.F.);
#240=ADVANCED_FACE('',(#28),#15,.T.);
#241=ADVANCED_FACE('',(#29),#16,.T.);
#242=ADVANCED_FACE('',(#30),#17,.T.);
#243=ADVANCED_FACE('',(#31),#18,.T.);
#244=ADVANCED_FACE('',(#32),#19,.T.);
#245=ADVANCED_FACE('',(#33),#20,.T.);
#246=ADVANCED_FACE('',(#34),#21,.T.);
#247=ADVANCED_FACE('',(#35),#22,.T.);
#248=ADVANCED_FACE('',(#36),#23,.T.);
#249=ADVANCED_FACE('',(#37),#24,.T.);
#250=ADVANCED_FACE('',(#38),#25,.T.);
#251=ADVANCED_FACE('',(#39),#26,.F.);
#252=CLOSED_SHELL('',(#239,#240,#241,#242,#243,#244,#245,#246,#247,#248,
#249,#250,#251));
#253=DERIVED_UNIT_ELEMENT(#255,1.);
#254=DERIVED_UNIT_ELEMENT(#424,3.);
#255=(
MASS_UNIT()
NAMED_UNIT(*)
SI_UNIT($,.GRAM.)
);
#256=DERIVED_UNIT((#253,#254));
#257=MEASURE_REPRESENTATION_ITEM('density measure',
POSITIVE_RATIO_MEASURE(1.),#256);
#258=PROPERTY_DEFINITION_REPRESENTATION(#263,#260);
#259=PROPERTY_DEFINITION_REPRESENTATION(#264,#261);
#260=REPRESENTATION('material name',(#262),#421);
#261=REPRESENTATION('density',(#257),#421);
#262=DESCRIPTIVE_REPRESENTATION_ITEM('Generic','Generic');
#263=PROPERTY_DEFINITION('material property','material name',#431);
#264=PROPERTY_DEFINITION('material property','density of part',#431);
#265=DATE_TIME_ROLE('creation_date');
#266=APPLIED_DATE_AND_TIME_ASSIGNMENT(#267,#265,(#431));
#267=DATE_AND_TIME(#268,#269);
#268=CALENDAR_DATE(2026,6,6);
#269=LOCAL_TIME(0,0,0.,#270);
#270=COORDINATED_UNIVERSAL_TIME_OFFSET(0,0,.BEHIND.);
#271=AXIS2_PLACEMENT_3D('placement',#350,#287,#288);
#272=AXIS2_PLACEMENT_3D('',#351,#289,#290);
#273=AXIS2_PLACEMENT_3D('',#354,#291,#292);
#274=AXIS2_PLACEMENT_3D('',#358,#294,#295);
#275=AXIS2_PLACEMENT_3D('',#360,#297,#298);
#276=AXIS2_PLACEMENT_3D('',#370,#304,#305);
#277=AXIS2_PLACEMENT_3D('',#374,#308,#309);
#278=AXIS2_PLACEMENT_3D('',#383,#314,#315);
#279=AXIS2_PLACEMENT_3D('',#389,#319,#320);
#280=AXIS2_PLACEMENT_3D('',#395,#324,#325);
#281=AXIS2_PLACEMENT_3D('',#401,#329,#330);
#282=AXIS2_PLACEMENT_3D('',#407,#334,#335);
#283=AXIS2_PLACEMENT_3D('',#412,#339,#340);
#284=AXIS2_PLACEMENT_3D('',#414,#342,#343);
#285=AXIS2_PLACEMENT_3D('',#417,#346,#347);
#286=AXIS2_PLACEMENT_3D('',#418,#348,#349);
#287=DIRECTION('axis',(0.,0.,1.));
#288=DIRECTION('refdir',(1.,0.,0.));
#289=DIRECTION('center_axis',(0.,-1.,0.));
#290=DIRECTION('ref_axis',(1.,0.,0.));
#291=DIRECTION('center_axis',(0.,1.,0.));
#292=DIRECTION('ref_axis',(1.,0.,0.));
#293=DIRECTION('',(0.,-1.,0.));
#294=DIRECTION('center_axis',(0.,-1.,0.));
#295=DIRECTION('ref_axis',(1.,0.,0.));
#296=DIRECTION('',(0.,1.,0.));
#297=DIRECTION('center_axis',(0.,1.,0.));
#298=DIRECTION('ref_axis',(-1.,0.,0.));
#299=DIRECTION('',(0.,0.,1.));
#300=DIRECTION('',(-1.,0.,0.));
#301=DIRECTION('',(0.,0.,1.));
#302=DIRECTION('',(-1.,0.,0.));
#303=DIRECTION('',(0.,0.,1.));
#304=DIRECTION('center_axis',(-1.,0.,0.));
#305=DIRECTION('ref_axis',(0.,-1.,0.));
#306=DIRECTION('',(0.,0.,1.));
#307=DIRECTION('',(0.,-1.,0.));
#308=DIRECTION('center_axis',(0.,1.,0.));
#309=DIRECTION('ref_axis',(-1.,0.,0.));
#310=DIRECTION('',(-1.,0.,0.));
#311=DIRECTION('',(0.,0.,1.));
#312=DIRECTION('',(-1.,0.,0.));
#313=DIRECTION('',(0.,0.,1.));
#314=DIRECTION('center_axis',(-1.,0.,0.));
#315=DIRECTION('ref_axis',(0.,-1.,0.));
#316=DIRECTION('',(0.,-1.,0.));
#317=DIRECTION('',(0.,-1.,0.));
#318=DIRECTION('',(0.,0.,1.));
#319=DIRECTION('center_axis',(0.,1.,0.));
#320=DIRECTION('ref_axis',(-1.,0.,0.));
#321=DIRECTION('',(-1.,0.,0.));
#322=DIRECTION('',(-1.,0.,0.));
#323=DIRECTION('',(0.,0.,1.));
#324=DIRECTION('center_axis',(1.,0.,0.));
#325=DIRECTION('ref_axis',(0.,1.,0.));
#326=DIRECTION('',(0.,1.,0.));
#327=DIRECTION('',(0.,1.,0.));
#328=DIRECTION('',(0.,0.,1.));
#329=DIRECTION('center_axis',(0.880471099922175,-0.474099823035017,0.));
#330=DIRECTION('ref_axis',(0.474099823035017,0.880471099922175,0.));
#331=DIRECTION('',(0.474099823035017,0.880471099922175,0.));
#332=DIRECTION('',(0.474099823035017,0.880471099922175,0.));
#333=DIRECTION('',(0.,0.,1.));
#334=DIRECTION('center_axis',(0.,-1.,0.));
#335=DIRECTION('ref_axis',(1.,0.,0.));
#336=DIRECTION('',(0.,0.,1.));
#337=DIRECTION('',(1.,0.,0.));
#338=DIRECTION('',(1.,0.,0.));
#339=DIRECTION('center_axis',(-1.,0.,0.));
#340=DIRECTION('ref_axis',(0.,-1.,0.));
#341=DIRECTION('',(0.,-1.,0.));
#342=DIRECTION('center_axis',(-1.,0.,0.));
#343=DIRECTION('ref_axis',(0.,-1.,0.));
#344=DIRECTION('',(0.,-1.,0.));
#345=DIRECTION('',(0.,-1.,0.));
#346=DIRECTION('center_axis',(0.,0.,1.));
#347=DIRECTION('ref_axis',(1.,0.,0.));
#348=DIRECTION('center_axis',(0.,0.,1.));
#349=DIRECTION('ref_axis',(1.,0.,0.));
#350=CARTESIAN_POINT('',(0.,0.,0.));
#351=CARTESIAN_POINT('Origin',(-47.,-53.,15.));
#352=CARTESIAN_POINT('',(-47.,-98.,22.5));
#353=CARTESIAN_POINT('',(-47.,-98.,7.5));
#354=CARTESIAN_POINT('Origin',(-47.,-98.,15.));
#355=CARTESIAN_POINT('',(-47.,-53.,22.5));
#356=CARTESIAN_POINT('',(-47.,-53.,22.5));
#357=CARTESIAN_POINT('',(-47.,-53.,7.5));
#358=CARTESIAN_POINT('Origin',(-47.,-53.,15.));
#359=CARTESIAN_POINT('',(-47.,-53.,7.5));
#360=CARTESIAN_POINT('Origin',(-32.,-53.,0.));
#361=CARTESIAN_POINT('',(-47.,-53.,30.));
#362=CARTESIAN_POINT('',(-47.,-53.,0.));
#363=CARTESIAN_POINT('',(-32.,-53.,30.));
#364=CARTESIAN_POINT('',(-32.,-53.,30.));
#365=CARTESIAN_POINT('',(-32.,-53.,0.));
#366=CARTESIAN_POINT('',(-32.,-53.,0.));
#367=CARTESIAN_POINT('',(-47.,-53.,0.));
#368=CARTESIAN_POINT('',(-32.,-53.,0.));
#369=CARTESIAN_POINT('',(-47.,-53.,0.));
#370=CARTESIAN_POINT('Origin',(-47.,-53.,0.));
#371=CARTESIAN_POINT('',(-47.,-98.,30.));
#372=CARTESIAN_POINT('',(-47.,-98.,0.));
#373=CARTESIAN_POINT('',(-47.,-53.,30.));
#374=CARTESIAN_POINT('Origin',(10.,-8.,0.));
#375=CARTESIAN_POINT('',(10.,-8.,0.));
#376=CARTESIAN_POINT('',(-32.,-8.,0.));
#377=CARTESIAN_POINT('',(10.,-8.,0.));
#378=CARTESIAN_POINT('',(-32.,-8.,30.));
#379=CARTESIAN_POINT('',(-32.,-8.,0.));
#380=CARTESIAN_POINT('',(10.,-8.,30.));
#381=CARTESIAN_POINT('',(10.,-8.,30.));
#382=CARTESIAN_POINT('',(10.,-8.,0.));
#383=CARTESIAN_POINT('Origin',(10.,21.,0.));
#384=CARTESIAN_POINT('',(10.,21.,0.));
#385=CARTESIAN_POINT('',(10.,21.,0.));
#386=CARTESIAN_POINT('',(10.,21.,30.));
#387=CARTESIAN_POINT('',(10.,21.,30.));
#388=CARTESIAN_POINT('',(10.,21.,0.));
#389=CARTESIAN_POINT('Origin',(20.,21.,0.));
#390=CARTESIAN_POINT('',(20.,21.,0.));
#391=CARTESIAN_POINT('',(20.,21.,0.));
#392=CARTESIAN_POINT('',(20.,21.,30.));
#393=CARTESIAN_POINT('',(20.,21.,30.));
#394=CARTESIAN_POINT('',(20.,21.,0.));
#395=CARTESIAN_POINT('Origin',(20.,-20.,0.));
#396=CARTESIAN_POINT('',(20.,-20.,0.));
#397=CARTESIAN_POINT('',(20.,-20.,0.));
#398=CARTESIAN_POINT('',(20.,-20.,30.));
#399=CARTESIAN_POINT('',(20.,-20.,30.));
#400=CARTESIAN_POINT('',(20.,-20.,0.));
#401=CARTESIAN_POINT('Origin',(-22.,-98.,0.));
#402=CARTESIAN_POINT('',(-22.,-98.,0.));
#403=CARTESIAN_POINT('',(-22.,-98.,0.));
#404=CARTESIAN_POINT('',(-22.,-98.,30.));
#405=CARTESIAN_POINT('',(-22.,-98.,30.));
#406=CARTESIAN_POINT('',(-22.,-98.,0.));
#407=CARTESIAN_POINT('Origin',(-47.,-98.,0.));
#408=CARTESIAN_POINT('',(-47.,-98.,0.));
#409=CARTESIAN_POINT('',(-47.,-98.,0.));
#410=CARTESIAN_POINT('',(-47.,-98.,0.));
#411=CARTESIAN_POINT('',(-47.,-98.,30.));
#412=CARTESIAN_POINT('Origin',(-47.,-53.,0.));
#413=CARTESIAN_POINT('',(-47.,-53.,0.));
#414=CARTESIAN_POINT('Origin',(-32.,-8.,0.));
#415=CARTESIAN_POINT('',(-32.,-8.,0.));
#416=CARTESIAN_POINT('',(-32.,-8.,30.));
#417=CARTESIAN_POINT('Origin',(-13.5,-38.5,30.));
#418=CARTESIAN_POINT('Origin',(-13.5,-38.5,0.));
#419=UNCERTAINTY_MEASURE_WITH_UNIT(LENGTH_MEASURE(0.01),#423,
'DISTANCE_ACCURACY_VALUE',
'Maximum model space distance between geometric entities at asserted c
onnectivities');
#420=UNCERTAINTY_MEASURE_WITH_UNIT(LENGTH_MEASURE(0.01),#423,
'DISTANCE_ACCURACY_VALUE',
'Maximum model space distance between geometric entities at asserted c
onnectivities');
#421=(
GEOMETRIC_REPRESENTATION_CONTEXT(3)
GLOBAL_UNCERTAINTY_ASSIGNED_CONTEXT((#419))
GLOBAL_UNIT_ASSIGNED_CONTEXT((#423,#425,#426))
REPRESENTATION_CONTEXT('','3D')
);
#422=(
GEOMETRIC_REPRESENTATION_CONTEXT(3)
GLOBAL_UNCERTAINTY_ASSIGNED_CONTEXT((#420))
GLOBAL_UNIT_ASSIGNED_CONTEXT((#423,#425,#426))
REPRESENTATION_CONTEXT('','3D')
);
#423=(
LENGTH_UNIT()
NAMED_UNIT(*)
SI_UNIT(.MILLI.,.METRE.)
);
#424=(
LENGTH_UNIT()
NAMED_UNIT(*)
SI_UNIT(.CENTI.,.METRE.)
);
#425=(
NAMED_UNIT(*)
PLANE_ANGLE_UNIT()
SI_UNIT($,.RADIAN.)
);
#426=(
NAMED_UNIT(*)
SI_UNIT($,.STERADIAN.)
SOLID_ANGLE_UNIT()
);
#427=SHAPE_DEFINITION_REPRESENTATION(#428,#429);
#428=PRODUCT_DEFINITION_SHAPE('',$,#431);
#429=SHAPE_REPRESENTATION('',(#271),#421);
#430=PRODUCT_DEFINITION_CONTEXT('part definition',#435,'design');
#431=PRODUCT_DEFINITION('JAW KUKA','JAW KUKA',#432,#430);
#432=PRODUCT_DEFINITION_FORMATION('',$,#437);
#433=PRODUCT_RELATED_PRODUCT_CATEGORY('JAW KUKA','JAW KUKA',(#437));
#434=APPLICATION_PROTOCOL_DEFINITION('international standard',
'automotive_design',2009,#435);
#435=APPLICATION_CONTEXT(
'Core Data for Automotive Mechanical Design Process');
#436=PRODUCT_CONTEXT('part definition',#435,'mechanical');
#437=PRODUCT('JAW KUKA','JAW KUKA',$,(#436));
#438=PRESENTATION_STYLE_ASSIGNMENT((#439));
#439=SURFACE_STYLE_USAGE(.BOTH.,#442);
#440=SURFACE_STYLE_RENDERING_WITH_PROPERTIES($,#446,(#441));
#441=SURFACE_STYLE_TRANSPARENT(0.);
#442=SURFACE_SIDE_STYLE('',(#443,#440));
#443=SURFACE_STYLE_FILL_AREA(#444);
#444=FILL_AREA_STYLE('',(#445));
#445=FILL_AREA_STYLE_COLOUR('',#446);
#446=COLOUR_RGB('',0.749019607843137,0.749019607843137,0.749019607843137);
ENDSEC;
END-ISO-10303-21;
